<svg width="25" height="25" viewBox="0 0 25 25" fill="none" xmlns="http://www.w3.org/2000/svg">
<path fill-rule="evenodd" clip-rule="evenodd" d="M24.02 12.7727C24.02 11.9218 23.9436 11.1036 23.8018 10.3182H12.5V14.96H18.9582C18.68 16.46 17.8345 17.7309 16.5636 18.5818V21.5927H20.4418C22.7109 19.5036 24.02 16.4273 24.02 12.7727Z" fill="#4285F4"/>
<path fill-rule="evenodd" clip-rule="evenodd" d="M12.5 24.5C15.74 24.5 18.4564 23.4254 20.4418 21.5927L16.5636 18.5818C15.4891 19.3018 14.1145 19.7272 12.5 19.7272C9.37455 19.7272 6.72909 17.6163 5.78546 14.78H1.77637V17.8891C3.75091 21.8109 7.80909 24.5 12.5 24.5Z" fill="#34A853"/>
<path fill-rule="evenodd" clip-rule="evenodd" d="M5.78545 14.78C5.54545 14.06 5.40909 13.2909 5.40909 12.5C5.40909 11.7091 5.54545 10.94 5.78545 10.22V7.1109H1.77636C0.963636 8.7309 0.5 10.5636 0.5 12.5C0.5 14.4364 0.963636 16.2691 1.77636 17.8891L5.78545 14.78Z" fill="#FBBC05"/>
<path fill-rule="evenodd" clip-rule="evenodd" d="M12.5 5.27273C14.2618 5.27273 15.8436 5.87818 17.0873 7.06727L20.5291 3.62545C18.4509 1.68909 15.7345 0.5 12.5 0.5C7.80909 0.5 3.75091 3.18909 1.77637 7.11091L5.78546 10.22C6.72909 7.38364 9.37455 5.27273 12.5 5.27273Z" fill="#EA4335"/>
</svg>
