<svg width="145" height="48" viewBox="0 0 145 48" fill="none" xmlns="http://www.w3.org/2000/svg">
<path d="M120.786 47.8637C119.814 47.8637 118.901 47.7857 118.049 47.6296C117.208 47.4855 116.512 47.2994 115.96 47.0713L117.689 41.344C118.589 41.6202 119.4 41.7703 120.12 41.7943C120.852 41.8183 121.483 41.6502 122.011 41.29C122.551 40.9298 122.99 40.3175 123.326 39.453L123.776 38.2823L113.853 9.82629H121.921L127.648 30.1417H127.936L133.718 9.82629H141.84L131.088 40.4796C130.572 41.9684 129.87 43.2651 128.981 44.3697C128.105 45.4864 126.994 46.3449 125.649 46.9452C124.304 47.5575 122.684 47.8637 120.786 47.8637Z" fill="white"/>
<path d="M112.292 9.82634V15.5896H92.7021V9.82634H112.292ZM97.9497 3.19861H105.622V28.9891C105.622 29.6975 105.73 30.2498 105.946 30.6461C106.162 31.0303 106.462 31.3004 106.847 31.4565C107.243 31.6126 107.699 31.6907 108.215 31.6907C108.576 31.6907 108.936 31.6606 109.296 31.6006C109.656 31.5286 113.976 30.3513 114.168 30.3153L115.375 36.0245C114.99 36.1446 110.407 37.4059 109.71 37.562C109.014 37.7301 108.167 37.8321 107.171 37.8681C105.322 37.9402 103.701 37.694 102.308 37.1297C100.927 36.5654 99.8528 35.6889 99.0843 34.5002C98.3159 33.3116 97.9377 31.8107 97.9497 29.9977V3.19861Z" fill="white"/>
<path d="M57.5128 38.0301C54.6672 38.0301 52.2178 37.4538 50.1647 36.3012C48.1235 35.1365 46.5506 33.4916 45.446 31.3664C44.3414 29.2292 43.7891 26.7018 43.7891 23.7841C43.7891 20.9385 44.3414 18.4411 45.446 16.2919C46.5506 14.1427 48.1055 12.4678 50.1106 11.2671C52.1278 10.0664 54.4931 9.46606 57.2066 9.46606C59.0316 9.46606 60.7306 9.76023 62.3035 10.3486C63.8884 10.9249 65.2692 11.7954 66.4458 12.96C67.6345 14.1247 68.559 15.5895 69.2194 17.3545C69.8798 19.1075 70.2099 21.1606 70.2099 23.514V25.6212H46.8508V20.8665H62.9879C62.9879 19.7619 62.7477 18.7833 62.2675 17.9308C61.7872 17.0783 61.1208 16.412 60.2683 15.9317C59.4279 15.4394 58.4493 15.1933 57.3327 15.1933C56.168 15.1933 55.1355 15.4634 54.2349 16.0037C53.3464 16.532 52.6501 17.2464 52.1458 18.147C51.6415 19.0355 51.3833 20.026 51.3713 21.1186V25.6392C51.3713 27.0079 51.6235 28.1906 52.1278 29.1872C52.644 30.1837 53.3705 30.9522 54.307 31.4925C55.2435 32.0328 56.3541 32.3029 57.6389 32.3029C58.4913 32.3029 59.2718 32.1829 59.9802 31.9427C60.6886 31.7026 61.2949 31.3424 61.7992 30.8621C62.3035 30.3818 62.6877 29.7935 62.9519 29.0971L70.0479 29.5654C69.6876 31.2703 68.9492 32.7592 67.8326 34.0319C66.728 35.2926 65.2992 36.2772 63.5462 36.9856C61.8052 37.682 59.7941 38.0301 57.5128 38.0301Z" fill="white"/>
<path d="M0.614258 0.605103H10.2317L20.3894 25.3871H20.8216L30.9794 0.605103H40.5968V37.4899H33.0325V13.4824H32.7263L23.181 37.3098H18.0301L8.48469 13.3923H8.17852V37.4899H0.614258V0.605103Z" fill="white"/>
<path d="M140.525 35.5779V32.7823H141.892C142.069 32.7823 142.23 32.8189 142.377 32.8921C142.526 32.9654 142.643 33.0714 142.729 33.2103C142.818 33.3467 142.862 33.5134 142.862 33.7103C142.862 33.9073 142.816 34.0753 142.725 34.2142C142.635 34.353 142.513 34.4591 142.362 34.5324C142.21 34.6031 142.042 34.6384 141.858 34.6384H140.922V34.1119H141.706C141.812 34.1119 141.903 34.0778 141.979 34.0096C142.057 33.9414 142.097 33.8404 142.097 33.7066C142.097 33.5677 142.057 33.4692 141.979 33.4111C141.903 33.3505 141.814 33.3202 141.71 33.3202H141.252V35.5779H140.525ZM142.309 34.2861L142.945 35.5779H142.15L141.555 34.2861H142.309ZM141.619 37.2446C141.2 37.2446 140.807 37.1663 140.441 37.0097C140.075 36.8532 139.753 36.636 139.475 36.3582C139.197 36.0804 138.98 35.7584 138.824 35.3922C138.667 35.0261 138.589 34.6334 138.589 34.2142C138.589 33.7949 138.667 33.4022 138.824 33.0361C138.98 32.6699 139.197 32.3479 139.475 32.0701C139.753 31.7923 140.075 31.5751 140.441 31.4186C140.807 31.262 141.2 31.1837 141.619 31.1837C142.039 31.1837 142.431 31.262 142.797 31.4186C143.164 31.5751 143.486 31.7923 143.763 32.0701C144.041 32.3479 144.258 32.6699 144.415 33.0361C144.571 33.4022 144.65 33.7949 144.65 34.2142C144.65 34.6334 144.571 35.0261 144.415 35.3922C144.258 35.7584 144.041 36.0804 143.763 36.3582C143.486 36.636 143.164 36.8532 142.797 37.0097C142.431 37.1663 142.039 37.2446 141.619 37.2446ZM141.619 36.4453C142.033 36.4453 142.408 36.3456 142.744 36.1461C143.083 35.944 143.352 35.6751 143.551 35.3392C143.751 35.0008 143.85 34.6258 143.85 34.2142C143.85 33.8025 143.749 33.4288 143.547 33.0929C143.348 32.7545 143.079 32.4855 142.741 32.286C142.405 32.084 142.031 31.983 141.619 31.983C141.21 31.983 140.836 32.084 140.498 32.286C140.16 32.4855 139.891 32.7545 139.691 33.0929C139.492 33.4288 139.392 33.8025 139.392 34.2142C139.392 34.6258 139.492 35.0008 139.691 35.3392C139.891 35.6751 140.16 35.944 140.498 36.1461C140.836 36.3456 141.21 36.4453 141.619 36.4453Z" fill="white"/>
<path d="M91.0433 9.82629V15.5895H71.4531V9.82629H91.0433ZM76.7007 10.5256H84.373V28.9891C84.373 29.6975 84.481 30.2498 84.6972 30.646C84.9133 31.0302 85.2135 31.3004 85.5977 31.4565C85.9939 31.6126 86.4502 31.6906 86.9664 31.6906C87.3266 31.6906 87.6868 31.6606 88.047 31.6006C88.4072 31.5285 92.7267 30.3513 92.9188 30.3152L94.1255 36.0245C93.7413 36.1445 89.1577 37.4058 88.4613 37.5619C87.7649 37.73 86.9184 37.8321 85.9219 37.8681C84.0728 37.9401 82.4519 37.694 81.0591 37.1297C79.6783 36.5654 78.6037 35.6889 77.8353 34.5002C77.0669 33.3115 76.6886 31.8107 76.7007 29.9977V10.5256Z" fill="white"/>
<rect x="76.541" y="0.854614" width="8.05977" height="6.59435" fill="#E7F2FD"/>
</svg>
