<svg width="145" height="48" viewBox="0 0 145 48" fill="none" xmlns="http://www.w3.org/2000/svg">
<path d="M120.94 47.2607C119.967 47.2607 119.055 47.1826 118.202 47.0266C117.362 46.8825 116.665 46.6964 116.113 46.4682L117.842 40.741C118.743 41.0172 119.553 41.1673 120.273 41.1913C121.006 41.2153 121.636 41.0472 122.164 40.687C122.705 40.3268 123.143 39.7144 123.479 38.8499L123.929 37.6793L114.006 9.22327H122.074L127.802 29.5387H128.09L133.871 9.22327H141.994L131.242 39.8765C130.725 41.3654 130.023 42.6621 129.134 43.7667C128.258 44.8833 127.147 45.7418 125.802 46.3422C124.458 46.9545 122.837 47.2607 120.94 47.2607Z" fill="#131417"/>
<path d="M112.446 9.22331V14.9866H92.8555V9.22331H112.446ZM98.103 2.59558H105.775V28.3861C105.775 29.0945 105.883 29.6468 106.099 30.043C106.316 30.4273 106.616 30.6974 107 30.8535C107.396 31.0096 107.852 31.0876 108.369 31.0876C108.729 31.0876 109.089 31.0576 109.449 30.9976C109.81 30.9255 114.129 29.7483 114.321 29.7123L115.528 35.4215C115.144 35.5415 110.56 36.8028 109.864 36.9589C109.167 37.127 108.321 37.2291 107.324 37.2651C105.475 37.3371 103.854 37.091 102.461 36.5267C101.081 35.9624 100.006 35.0859 99.2376 33.8972C98.4692 32.7085 98.091 31.2077 98.103 29.3947V2.59558Z" fill="#131417"/>
<path d="M57.6661 37.4271C54.8205 37.4271 52.3711 36.8508 50.318 35.6981C48.2768 34.5335 46.7039 32.8886 45.5993 30.7634C44.4947 28.6262 43.9424 26.0987 43.9424 23.1811C43.9424 20.3355 44.4947 17.8381 45.5993 15.6889C46.7039 13.5397 48.2588 11.8647 50.2639 10.664C52.2811 9.46337 54.6464 8.86304 57.3599 8.86304C59.1849 8.86304 60.8839 9.1572 62.4568 9.74553C64.0417 10.3219 65.4224 11.1923 66.5991 12.357C67.7878 13.5217 68.7123 14.9865 69.3727 16.7515C70.033 18.5045 70.3632 20.5576 70.3632 22.9109V25.0181H47.0041V20.2635H63.1412C63.1412 19.1588 62.901 18.1803 62.4208 17.3278C61.9405 16.4753 61.2741 15.8089 60.4216 15.3287C59.5812 14.8364 58.6026 14.5903 57.486 14.5903C56.3213 14.5903 55.2888 14.8604 54.3883 15.4007C53.4998 15.929 52.8034 16.6434 52.2991 17.5439C51.7948 18.4324 51.5366 19.423 51.5246 20.5156V25.0361C51.5246 26.4049 51.7768 27.5876 52.2811 28.5841C52.7974 29.5807 53.5238 30.3491 54.4603 30.8894C55.3968 31.4297 56.5074 31.6999 57.7922 31.6999C58.6446 31.6999 59.4251 31.5798 60.1335 31.3397C60.8419 31.0996 61.4482 30.7394 61.9525 30.2591C62.4568 29.7788 62.841 29.1905 63.1051 28.4941L70.2011 28.9624C69.8409 30.6673 69.1025 32.1562 67.9859 33.4289C66.8813 34.6896 65.4525 35.6741 63.6995 36.3825C61.9585 37.0789 59.9474 37.4271 57.6661 37.4271Z" fill="#131417"/>
<path d="M0.767578 0.0020752H10.385L20.5427 24.784H20.9749L31.1326 0.0020752H40.75V36.8868H33.1858V12.8793H32.8796L23.3343 36.7067H18.1834L8.638 12.7893H8.33183V36.8868H0.767578V0.0020752Z" fill="#131417"/>
<path d="M140.678 34.9748V32.1792H142.045C142.222 32.1792 142.384 32.2159 142.53 32.2891C142.679 32.3623 142.797 32.4684 142.883 32.6073C142.971 32.7437 143.015 32.9103 143.015 33.1073C143.015 33.3043 142.97 33.4722 142.879 33.6111C142.788 33.75 142.667 33.8561 142.515 33.9293C142.364 34 142.196 34.0354 142.011 34.0354H141.076V33.5088H141.86C141.966 33.5088 142.057 33.4748 142.132 33.4066C142.211 33.3384 142.25 33.2374 142.25 33.1035C142.25 32.9646 142.211 32.8661 142.132 32.8081C142.057 32.7475 141.967 32.7171 141.864 32.7171H141.405V34.9748H140.678ZM142.462 33.6831L143.098 34.9748H142.303L141.708 33.6831H142.462ZM141.773 36.6416C141.353 36.6416 140.961 36.5633 140.595 36.4067C140.228 36.2501 139.906 36.033 139.629 35.7552C139.351 35.4774 139.134 35.1554 138.977 34.7892C138.82 34.423 138.742 34.0303 138.742 33.6111C138.742 33.1919 138.82 32.7992 138.977 32.433C139.134 32.0669 139.351 31.7449 139.629 31.4671C139.906 31.1893 140.228 30.9721 140.595 30.8155C140.961 30.659 141.353 30.5807 141.773 30.5807C142.192 30.5807 142.585 30.659 142.951 30.8155C143.317 30.9721 143.639 31.1893 143.917 31.4671C144.194 31.7449 144.412 32.0669 144.568 32.433C144.725 32.7992 144.803 33.1919 144.803 33.6111C144.803 34.0303 144.725 34.423 144.568 34.7892C144.412 35.1554 144.194 35.4774 143.917 35.7552C143.639 36.033 143.317 36.2501 142.951 36.4067C142.585 36.5633 142.192 36.6416 141.773 36.6416ZM141.773 35.8423C142.187 35.8423 142.562 35.7425 142.898 35.543C143.236 35.341 143.505 35.0721 143.705 34.7362C143.904 34.3978 144.004 34.0228 144.004 33.6111C144.004 33.1995 143.903 32.8257 143.701 32.4899C143.501 32.1515 143.232 31.8825 142.894 31.683C142.558 31.481 142.184 31.38 141.773 31.38C141.364 31.38 140.99 31.481 140.651 31.683C140.313 31.8825 140.044 32.1515 139.845 32.4899C139.645 32.8257 139.545 33.1995 139.545 33.6111C139.545 34.0228 139.645 34.3978 139.845 34.7362C140.044 35.0721 140.313 35.341 140.651 35.543C140.99 35.7425 141.364 35.8423 141.773 35.8423Z" fill="#131417"/>
<path d="M91.1966 9.22327V14.9865H71.6064V9.22327H91.1966ZM76.854 9.9226H84.5263V28.3861C84.5263 29.0945 84.6343 29.6468 84.8505 30.043C85.0666 30.4272 85.3668 30.6974 85.751 30.8534C86.1472 31.0095 86.6035 31.0876 87.1197 31.0876C87.4799 31.0876 87.8401 31.0576 88.2003 30.9975C88.5605 30.9255 92.88 29.7482 93.0721 29.7122L94.2788 35.4214C93.8946 35.5415 89.311 36.8028 88.6146 36.9589C87.9182 37.127 87.0717 37.229 86.0752 37.2651C84.2261 37.3371 82.6052 37.091 81.2124 36.5266C79.8316 35.9623 78.757 35.0858 77.9886 33.8972C77.2202 32.7085 76.842 31.2076 76.854 29.3946V9.9226Z" fill="#131417"/>
<rect x="76.6934" y="0.251465" width="8.05975" height="6.59435" fill="#007BF5"/>
</svg>
