<svg width="215" height="58" viewBox="0 0 215 58" fill="none" xmlns="http://www.w3.org/2000/svg">
<g style="mix-blend-mode:overlay">
<rect x="7.13184" y="7.9581" width="49.4387" height="49.4388" rx="13.0286" fill="#4DA8FC"/>
</g>
<g filter="url(#filter0_b_520_695)">
<rect x="0.152344" y="0.396912" width="52.9285" height="52.9286" rx="11.7233" fill="url(#paint0_linear_520_695)"/>
<rect x="0.518696" y="0.763264" width="52.1958" height="52.1959" rx="11.3569" stroke="#007BF5" stroke-opacity="0.1" stroke-width="0.732705"/>
</g>
<rect x="29.4609" y="28.8904" width="16.2922" height="16.2922" rx="8.14608" fill="white"/>
<rect x="33.8564" y="33.2931" width="7.32705" height="7.32706" rx="3.66352" fill="#007BF5"/>
<path d="M190.94 54.6575C189.967 54.6575 189.055 54.5795 188.202 54.4234C187.362 54.2793 186.665 54.0932 186.113 53.8651L187.842 48.1379C188.743 48.414 189.553 48.5641 190.273 48.5881C191.006 48.6121 191.636 48.444 192.164 48.0838C192.705 47.7236 193.143 47.1113 193.479 46.2468L193.929 45.0761L184.006 16.6201H192.074L197.802 36.9356H198.09L203.871 16.6201H211.994L201.242 47.2734C200.725 48.7622 200.023 50.0589 199.134 51.1636C198.258 52.2802 197.147 53.1387 195.802 53.739C194.458 54.3514 192.837 54.6575 190.94 54.6575Z" fill="white"/>
<path d="M182.446 16.6201V22.3834H162.855V16.6201H182.446ZM168.103 9.9924H175.775V35.7829C175.775 36.4913 175.883 37.0436 176.099 37.4399C176.316 37.8241 176.616 38.0942 177 38.2503C177.396 38.4064 177.852 38.4844 178.369 38.4844C178.729 38.4844 179.089 38.4544 179.449 38.3944C179.81 38.3224 184.129 37.1451 184.321 37.1091L185.528 42.8183C185.144 42.9384 180.56 44.1997 179.864 44.3557C179.167 44.5238 178.321 44.6259 177.324 44.6619C175.475 44.734 173.854 44.4878 172.461 43.9235C171.081 43.3592 170.006 42.4827 169.238 41.294C168.469 40.1054 168.091 38.6045 168.103 36.7915V9.9924Z" fill="white"/>
<path d="M127.666 44.824C124.82 44.824 122.371 44.2477 120.318 43.0951C118.277 41.9304 116.704 40.2855 115.599 38.1603C114.495 36.0231 113.942 33.4957 113.942 30.578C113.942 27.7324 114.495 25.235 115.599 23.0858C116.704 20.9366 118.259 19.2616 120.264 18.061C122.281 16.8603 124.646 16.2599 127.36 16.2599C129.185 16.2599 130.884 16.5541 132.457 17.1424C134.042 17.7188 135.422 18.5893 136.599 19.7539C137.788 20.9186 138.712 22.3834 139.373 24.1484C140.033 25.9014 140.363 27.9545 140.363 30.3079V32.415H117.004V27.6604H133.141C133.141 26.5557 132.901 25.5772 132.421 24.7247C131.94 23.8722 131.274 23.2059 130.422 22.7256C129.581 22.2333 128.603 21.9872 127.486 21.9872C126.321 21.9872 125.289 22.2573 124.388 22.7976C123.5 23.3259 122.803 24.0403 122.299 24.9408C121.795 25.8293 121.537 26.8199 121.525 27.9125V32.4331C121.525 33.8018 121.777 34.9845 122.281 35.9811C122.797 36.9776 123.524 37.746 124.46 38.2864C125.397 38.8267 126.507 39.0968 127.792 39.0968C128.645 39.0968 129.425 38.9767 130.133 38.7366C130.842 38.4965 131.448 38.1363 131.952 37.656C132.457 37.1757 132.841 36.5874 133.105 35.891L140.201 36.3593C139.841 38.0642 139.103 39.5531 137.986 40.8258C136.881 42.0865 135.452 43.071 133.699 43.7794C131.958 44.4758 129.947 44.824 127.666 44.824Z" fill="white"/>
<path d="M70.7676 7.39896H80.385L90.5427 32.1809H90.9749L101.133 7.39896H110.75V44.2837H103.186V20.2762H102.88L93.3343 44.1036H88.1834L78.638 20.1862H78.3318V44.2837H70.7676V7.39896Z" fill="white"/>
<path d="M210.678 42.3717V39.5761H212.045C212.222 39.5761 212.384 39.6127 212.53 39.6859C212.679 39.7592 212.797 39.8652 212.883 40.0041C212.971 40.1405 213.015 40.3072 213.015 40.5042C213.015 40.7011 212.97 40.8691 212.879 41.008C212.788 41.1469 212.667 41.2529 212.515 41.3262C212.364 41.3969 212.196 41.4322 212.011 41.4322H211.076V40.9057H211.86C211.966 40.9057 212.057 40.8716 212.132 40.8034C212.211 40.7352 212.25 40.6342 212.25 40.5004C212.25 40.3615 212.211 40.263 212.132 40.2049C212.057 40.1443 211.967 40.114 211.864 40.114H211.405V42.3717H210.678ZM212.462 41.08L213.098 42.3717H212.303L211.708 41.08H212.462ZM211.773 44.0384C211.353 44.0384 210.961 43.9601 210.595 43.8036C210.228 43.647 209.906 43.4298 209.629 43.152C209.351 42.8742 209.134 42.5522 208.977 42.1861C208.82 41.8199 208.742 41.4272 208.742 41.008C208.742 40.5888 208.82 40.1961 208.977 39.8299C209.134 39.4637 209.351 39.1417 209.629 38.8639C209.906 38.5862 210.228 38.369 210.595 38.2124C210.961 38.0558 211.353 37.9775 211.773 37.9775C212.192 37.9775 212.585 38.0558 212.951 38.2124C213.317 38.369 213.639 38.5862 213.917 38.8639C214.194 39.1417 214.412 39.4637 214.568 39.8299C214.725 40.1961 214.803 40.5888 214.803 41.008C214.803 41.4272 214.725 41.8199 214.568 42.1861C214.412 42.5522 214.194 42.8742 213.917 43.152C213.639 43.4298 213.317 43.647 212.951 43.8036C212.585 43.9601 212.192 44.0384 211.773 44.0384ZM211.773 43.2391C212.187 43.2391 212.562 43.1394 212.898 42.9399C213.236 42.7379 213.505 42.4689 213.705 42.133C213.904 41.7946 214.004 41.4196 214.004 41.008C214.004 40.5963 213.903 40.2226 213.701 39.8867C213.501 39.5483 213.232 39.2794 212.894 39.0799C212.558 38.8778 212.184 38.7768 211.773 38.7768C211.364 38.7768 210.99 38.8778 210.651 39.0799C210.313 39.2794 210.044 39.5483 209.845 39.8867C209.645 40.2226 209.545 40.5963 209.545 41.008C209.545 41.4196 209.645 41.7946 209.845 42.133C210.044 42.4689 210.313 42.7379 210.651 42.9399C210.99 43.1394 211.364 43.2391 211.773 43.2391Z" fill="white"/>
<path d="M161.197 16.6201V22.3834H141.606V16.6201H161.197ZM146.854 17.3195H154.526V35.7829C154.526 36.4913 154.634 37.0436 154.85 37.4399C155.067 37.8241 155.367 38.0942 155.751 38.2503C156.147 38.4064 156.603 38.4845 157.12 38.4845C157.48 38.4845 157.84 38.4544 158.2 38.3944C158.561 38.3224 162.88 37.1451 163.072 37.1091L164.279 42.8183C163.895 42.9384 159.311 44.1997 158.615 44.3558C157.918 44.5239 157.072 44.6259 156.075 44.6619C154.226 44.734 152.605 44.4878 151.212 43.9235C149.832 43.3592 148.757 42.4827 147.989 41.294C147.22 40.1054 146.842 38.6045 146.854 36.7915V17.3195Z" fill="white"/>
<rect x="146.693" y="7.64841" width="8.05975" height="6.59435" fill="#007BF5"/>
<defs>
<filter id="filter0_b_520_695" x="-7.17471" y="-6.93014" width="67.5828" height="67.5827" filterUnits="userSpaceOnUse" color-interpolation-filters="sRGB">
<feFlood flood-opacity="0" result="BackgroundImageFix"/>
<feGaussianBlur in="BackgroundImageFix" stdDeviation="3.66353"/>
<feComposite in2="SourceAlpha" operator="in" result="effect1_backgroundBlur_520_695"/>
<feBlend mode="normal" in="SourceGraphic" in2="effect1_backgroundBlur_520_695" result="shape"/>
</filter>
<linearGradient id="paint0_linear_520_695" x1="26.6166" y1="0.396912" x2="26.6166" y2="58.2807" gradientUnits="userSpaceOnUse">
<stop stop-color="#007BF5"/>
<stop offset="1" stop-color="#007BF5" stop-opacity="0"/>
</linearGradient>
</defs>
</svg>
