<svg width="215" height="57" viewBox="0 0 215 57" fill="none" xmlns="http://www.w3.org/2000/svg">
<!-- <rect x="6.97949" y="7.56119" width="49.4388" height="49.4388" rx="13.0286" fill="#4DA8FC"/> -->
<rect width="52.9286" height="52.9286" rx="11.7233" fill="url(#paint0_linear_520_807)"/>
<rect x="29.3086" y="28.4935" width="16.2922" height="16.2922" rx="8.14609" fill="#007BF5"/>
<rect x="33.7041" y="32.8962" width="7.32706" height="7.32706" rx="3.66353" fill="#F1F8FF"/>
<path d="M190.786 54.2606C189.814 54.2606 188.901 54.1826 188.049 54.0265C187.208 53.8824 186.512 53.6963 185.96 53.4681L187.689 47.7409C188.589 48.0171 189.4 48.1672 190.12 48.1912C190.852 48.2152 191.483 48.0471 192.011 47.6869C192.551 47.3267 192.99 46.7143 193.326 45.8499L193.776 44.6792L183.853 16.2232H191.921L197.648 36.5386H197.936L203.718 16.2232H211.84L201.088 46.8764C200.572 48.3653 199.87 49.662 198.981 50.7666C198.105 51.8833 196.994 52.7417 195.649 53.3421C194.304 53.9544 192.684 54.2606 190.786 54.2606Z" fill="white"/>
<path d="M182.292 16.2232V21.9864H162.702V16.2232H182.292ZM167.95 9.59546H175.622V35.386C175.622 36.0944 175.73 36.6467 175.946 37.0429C176.162 37.4271 176.462 37.6973 176.847 37.8534C177.243 38.0095 177.699 38.0875 178.215 38.0875C178.576 38.0875 178.936 38.0575 179.296 37.9975C179.656 37.9254 183.976 36.7482 184.168 36.7121L185.375 42.4214C184.99 42.5414 180.407 43.8027 179.71 43.9588C179.014 44.1269 178.167 44.229 177.171 44.265C175.322 44.337 173.701 44.0909 172.308 43.5266C170.927 42.9622 169.853 42.0858 169.084 40.8971C168.316 39.7084 167.938 38.2076 167.95 36.3945V9.59546Z" fill="white"/>
<path d="M127.513 44.4271C124.667 44.4271 122.218 43.8508 120.165 42.6981C118.124 41.5335 116.551 39.8885 115.446 37.7633C114.341 35.6261 113.789 33.0987 113.789 30.1811C113.789 27.3355 114.341 24.8381 115.446 22.6888C116.551 20.5396 118.105 18.8647 120.111 17.664C122.128 16.4633 124.493 15.863 127.207 15.863C129.032 15.863 130.731 16.1572 132.303 16.7455C133.888 17.3218 135.269 18.1923 136.446 19.357C137.634 20.5216 138.559 21.9865 139.219 23.7514C139.88 25.5044 140.21 27.5576 140.21 29.9109V32.0181H116.851V27.2634H132.988C132.988 26.1588 132.748 25.1803 132.267 24.3278C131.787 23.4753 131.121 22.8089 130.268 22.3286C129.428 21.8364 128.449 21.5902 127.333 21.5902C126.168 21.5902 125.135 21.8604 124.235 22.4007C123.346 22.929 122.65 23.6434 122.146 24.5439C121.641 25.4324 121.383 26.423 121.371 27.5156V32.0361C121.371 33.4049 121.623 34.5875 122.128 35.5841C122.644 36.5807 123.37 37.3491 124.307 37.8894C125.244 38.4297 126.354 38.6999 127.639 38.6999C128.491 38.6999 129.272 38.5798 129.98 38.3397C130.689 38.0995 131.295 37.7393 131.799 37.2591C132.303 36.7788 132.688 36.1905 132.952 35.4941L140.048 35.9623C139.688 37.6673 138.949 39.1561 137.833 40.4288C136.728 41.6896 135.299 42.6741 133.546 43.3825C131.805 44.0789 129.794 44.4271 127.513 44.4271Z" fill="white"/>
<path d="M70.6143 7.00201H80.2317L90.3894 31.784H90.8216L100.979 7.00201H110.597V43.8868H103.033V19.8793H102.726L93.181 43.7067H88.0301L78.4847 19.7892H78.1785V43.8868H70.6143V7.00201Z" fill="white"/>
<path d="M210.525 41.9747V39.1792H211.892C212.069 39.1792 212.23 39.2158 212.377 39.289C212.526 39.3622 212.643 39.4683 212.729 39.6072C212.818 39.7436 212.862 39.9102 212.862 40.1072C212.862 40.3042 212.816 40.4721 212.725 40.611C212.635 40.7499 212.513 40.856 212.362 40.9292C212.21 40.9999 212.042 41.0353 211.858 41.0353H210.922V40.5088H211.706C211.812 40.5088 211.903 40.4747 211.979 40.4065C212.057 40.3383 212.097 40.2373 212.097 40.1034C212.097 39.9645 212.057 39.8661 211.979 39.808C211.903 39.7474 211.814 39.7171 211.71 39.7171H211.252V41.9747H210.525ZM212.309 40.683L212.945 41.9747H212.15L211.555 40.683H212.309ZM211.619 43.6415C211.2 43.6415 210.807 43.5632 210.441 43.4066C210.075 43.25 209.753 43.0329 209.475 42.7551C209.197 42.4773 208.98 42.1553 208.824 41.7891C208.667 41.4229 208.589 41.0302 208.589 40.611C208.589 40.1918 208.667 39.7991 208.824 39.433C208.98 39.0668 209.197 38.7448 209.475 38.467C209.753 38.1892 210.075 37.972 210.441 37.8155C210.807 37.6589 211.2 37.5806 211.619 37.5806C212.039 37.5806 212.431 37.6589 212.797 37.8155C213.164 37.972 213.486 38.1892 213.763 38.467C214.041 38.7448 214.258 39.0668 214.415 39.433C214.571 39.7991 214.65 40.1918 214.65 40.611C214.65 41.0302 214.571 41.4229 214.415 41.7891C214.258 42.1553 214.041 42.4773 213.763 42.7551C213.486 43.0329 213.164 43.25 212.797 43.4066C212.431 43.5632 212.039 43.6415 211.619 43.6415ZM211.619 42.8422C212.033 42.8422 212.408 42.7424 212.744 42.5429C213.083 42.3409 213.352 42.072 213.551 41.7361C213.751 41.3977 213.85 41.0227 213.85 40.611C213.85 40.1994 213.749 39.8256 213.547 39.4898C213.348 39.1514 213.079 38.8824 212.741 38.6829C212.405 38.4809 212.031 38.3799 211.619 38.3799C211.21 38.3799 210.836 38.4809 210.498 38.6829C210.16 38.8824 209.891 39.1514 209.691 39.4898C209.492 39.8256 209.392 40.1994 209.392 40.611C209.392 41.0227 209.492 41.3977 209.691 41.7361C209.891 42.072 210.16 42.3409 210.498 42.5429C210.836 42.7424 211.21 42.8422 211.619 42.8422Z" fill="white"/>
<path d="M161.043 16.2232V21.9865H141.453V16.2232H161.043ZM146.701 16.9225H154.373V35.386C154.373 36.0944 154.481 36.6467 154.697 37.0429C154.913 37.4271 155.213 37.6973 155.598 37.8534C155.994 38.0095 156.45 38.0875 156.966 38.0875C157.327 38.0875 157.687 38.0575 158.047 37.9975C158.407 37.9254 162.727 36.7482 162.919 36.7122L164.126 42.4214C163.741 42.5414 159.158 43.8027 158.461 43.9588C157.765 44.1269 156.918 44.229 155.922 44.265C154.073 44.337 152.452 44.0909 151.059 43.5266C149.678 42.9623 148.604 42.0858 147.835 40.8971C147.067 39.7084 146.689 38.2076 146.701 36.3946V16.9225Z" fill="white"/>
<rect x="146.541" y="7.2515" width="8.05977" height="6.59435" fill="#E7F2FD"/>
<defs>
<linearGradient id="paint0_linear_520_807" x1="41.6504" y1="51.5" x2="-9.84961" y2="0" gradientUnits="userSpaceOnUse">
<stop stop-color="white"/>
<stop offset="1" stop-color="#DBEEFE"/>
</linearGradient>
</defs>
</svg>
